PathFileType	4	(X/Y/Z)	Kaydara	
DataRate	CameraRate	NumFrames	NumMarkers	Units	OrigDataRate	OrigDataStartFrame	OrigNumFrames	
24.00	24.00	8	28	mm	24.00	50	66	
Frame#	Time	reference			Hips			Spine			Spine1			Neck			Head			Head_End			LeftShoulder			LeftArm			LeftForeArm			LeftHand			LeftHand_End			RightShoulder			RightArm			RightForeArm			RightHand			RightHand_End			LeftUpLeg			LeftLeg			LeftFoot			LeftFoot_End			RightUpLeg			RightLeg			RightFoot			RightFoot_End			Tail			Tail1			Tail1_End			
		X1	Y1	Z1	X2	Y2	Z2	X3	Y3	Z3	X4	Y4	Z4	X5	Y5	Z5	X6	Y6	Z6	X7	Y7	Z7	X8	Y8	Z8	X9	Y9	Z9	X10	Y10	Z10	X11	Y11	Z11	X12	Y12	Z12	X13	Y13	Z13	X14	Y14	Z14	X15	Y15	Z15	X16	Y16	Z16	X17	Y17	Z17	X18	Y18	Z18	X19	Y19	Z19	X20	Y20	Z20	X21	Y21	Z21	X22	Y22	Z22	X23	Y23	Z23	X24	Y24	Z24	X25	Y25	Z25	X26	Y26	Z26	X27	Y27	Z27	X28	Y28	Z28	

50	2.042	949.43764	66.73111	-507.05143	188.80956	466.15836	846.60890	188.80958	466.15834	846.60883	199.51755	414.20836	1029.05482	215.08191	419.61636	1253.53079	232.23708	475.34435	1380.81077	218.91219	549.63430	1533.13756	255.70208	386.59163	1225.27554	296.73964	331.96292	1266.88838	285.15776	241.64946	1145.17821	221.72588	79.14738	1180.58240	211.30214	26.24313	1228.29488	169.91743	387.99305	1231.18973	126.74821	344.97093	1283.03383	73.19550	227.25660	1203.16256	173.26578	128.91760	1312.70423	222.45819	76.66909	1318.55185	212.30216	382.90317	781.28042	257.85518	239.20731	834.91265	194.78887	123.76200	712.05082	164.67482	20.04917	712.94203	121.11816	389.94643	809.72090	142.53015	297.25432	938.36653	117.22185	137.86184	858.65756	128.81828	35.56985	891.30528	167.82775	455.07281	782.08380	166.66951	430.03285	664.73107	167.80515	439.47305	545.10835 
51	2.083	949.43764	66.73111	-507.05143	187.73323	466.51554	859.66251	187.73325	466.51551	859.66245	194.18015	417.46827	1043.10946	216.23574	424.09450	1267.00810	235.29419	478.97579	1394.38518	224.57525	553.92024	1546.59698	256.63284	391.73432	1237.68433	298.83253	336.17816	1276.83410	285.48344	246.06172	1155.15889	222.88942	81.91428	1183.82227	211.39268	26.84395	1228.75644	171.04824	391.52436	1246.12118	130.61706	347.68179	1299.46388	84.70928	220.92256	1229.26025	182.14424	130.07645	1347.31706	232.42010	83.44574	1369.26952	212.45669	382.10338	796.30261	258.17869	236.78360	845.20716	196.52242	125.28933	718.05552	166.46095	21.63674	713.99979	121.11811	388.61804	824.37065	145.66836	300.83624	955.86833	116.74359	133.73562	895.52986	128.01405	33.47126	934.05305	167.05882	453.69403	795.36016	163.61692	434.19665	677.00472	160.96429	453.19652	558.54811 
52	2.125	949.43764	66.73111	-507.05143	186.67795	466.38292	872.41649	186.67797	466.38289	872.41642	188.99355	421.43619	1057.00904	218.74381	428.79802	1279.99263	238.80160	483.38384	1407.34322	229.35218	558.87714	1559.36779	258.73047	397.21595	1249.29033	301.82715	340.68660	1285.99338	286.08926	249.09934	1165.70987	223.94342	83.67019	1187.04236	212.32278	26.56740	1229.32980	173.51557	395.30073	1260.72281	135.71561	350.59241	1315.26292	98.30991	216.56003	1254.10647	190.24736	124.08487	1375.26688	237.78579	82.33379	1409.63170	213.24645	380.99696	811.14257	258.77157	233.66399	853.80935	198.67104	125.38272	723.18355	167.56805	22.31815	714.56387	121.55098	386.77019	838.19072	148.66704	303.09602	971.84457	118.32812	131.00709	928.65956	128.40875	31.92122	970.42523	166.82599	451.87458	808.21351	161.64753	436.96548	689.25592	156.15616	464.49513	572.58560 
53	2.167	949.43764	66.73111	-507.05143	185.37515	466.25930	885.24908	185.37517	466.25927	885.24901	184.91535	425.53395	1070.83251	221.93214	433.27976	1292.71247	243.01113	487.81333	1419.92044	234.67178	564.27821	1571.52379	261.50206	402.54323	1260.64258	305.97060	345.10785	1294.16467	288.13365	252.19787	1175.19574	226.08116	86.10962	1190.94899	213.53064	26.39058	1229.16046	176.77198	398.89276	1274.90569	141.25952	353.55651	1330.45553	114.82080	213.16232	1278.54752	201.06808	112.14791	1397.04433	244.41124	74.48593	1440.48327	214.27751	380.16959	826.05150	259.68004	231.31491	863.21180	199.77525	126.53766	729.67098	169.08717	23.98234	715.36542	122.15613	384.78092	851.84640	148.58118	303.93373	987.36559	121.85110	128.52310	957.09009	130.44485	29.64059	999.66235	166.60783	450.10026	821.11416	160.47949	438.15115	701.86791	152.93797	472.42358	587.11371 
54	2.208	949.43764	66.73111	-507.05143	183.67307	466.40452	898.33984	183.67309	466.40449	898.33977	181.29601	430.21622	1084.84650	225.17839	437.17850	1305.49740	247.18701	492.23747	1432.32103	240.13075	569.80160	1583.43031	264.10596	407.13654	1272.01433	309.80365	349.18606	1302.89260	285.17878	255.72596	1185.57742	227.20427	87.73795	1195.72465	214.71358	25.86393	1230.35967	179.92007	402.31450	1288.90907	146.68809	356.70550	1345.63428	132.17473	212.35904	1300.27527	218.45782	115.04063	1421.80039	254.60347	76.75393	1470.90860	215.17850	380.09074	840.82046	258.97941	229.50727	872.53940	198.97076	127.41093	736.98385	168.68641	25.67126	717.08666	122.59702	383.22307	865.14840	144.47018	303.16940	1001.94378	126.61844	125.53308	978.99498	134.41726	26.18224	1020.61937	166.22008	448.98089	834.16488	159.09319	438.93867	714.79836	149.23720	479.06337	602.13573 
55	2.250	949.43764	66.73111	-507.05143	181.80052	467.37874	911.54288	181.80055	467.37871	911.54282	178.31730	434.44385	1098.63414	228.63059	440.92632	1317.92278	251.35010	496.76676	1444.27850	244.81489	575.66085	1594.72122	266.97742	411.62843	1283.13562	314.22937	353.43294	1311.07380	287.60485	258.02651	1195.77951	229.51904	89.82815	1200.17683	215.52062	26.17344	1230.77287	183.40938	405.48786	1302.49083	152.29466	359.77358	1360.32139	145.33576	211.56766	1327.29781	224.19630	108.50950	1449.13388	267.71119	74.37604	1495.23548	215.63678	381.22010	855.12536	257.44202	229.07262	881.64815	197.44800	128.63281	744.85425	167.75467	27.89495	719.67109	122.68195	382.87843	878.13925	141.00566	299.55567	1013.49640	130.11300	120.91713	994.27105	137.38656	20.30543	1032.85060	165.56194	449.17460	847.26588	157.90972	439.38482	727.91091	146.00880	483.68268	617.02328 
56	2.292	949.43764	66.73111	-507.05143	180.14916	468.74194	925.28239	180.14918	468.74191	925.28233	173.62659	437.98820	1112.66340	231.86953	444.18074	1329.98889	255.34103	501.12477	1455.71306	248.54994	582.61370	1604.75478	269.32442	415.59918	1293.66786	318.14644	357.66434	1319.35770	292.11427	259.40810	1206.34413	232.93388	91.54280	1204.63983	216.49407	26.63491	1231.11046	186.62012	408.16651	1316.04424	157.34866	362.76528	1375.07140	152.58326	214.68202	1341.12124	223.23331	101.59086	1459.03205	256.43191	57.66187	1505.42269	216.11180	383.12782	869.35342	256.59153	229.86329	891.06442	196.77385	130.12395	753.68204	167.37723	30.84693	722.95888	123.00817	382.91562	891.81808	141.59345	292.88655	1022.77362	131.60016	114.35780	1002.09479	138.39628	13.35614	1039.73092	164.67490	449.99405	860.97315	158.01747	438.53010	741.70764	145.69602	484.29245	631.46251 
57	2.333	949.43764	66.73111	-507.05143	178.73353	468.56768	939.90763	178.73356	468.56765	939.90757	171.92066	440.42626	1127.68841	236.20022	445.52625	1343.33415	260.45340	504.15470	1468.13235	253.73259	587.91038	1615.91536	272.79697	417.42913	1305.78125	323.02359	359.90470	1329.61885	299.23447	258.74945	1218.68770	236.29314	92.50489	1209.46167	217.90994	26.39719	1231.27509	190.80072	409.31917	1330.41439	163.17430	364.38337	1390.57958	152.72032	216.59104	1356.63672	219.36673	90.64608	1463.31437	250.86479	40.16031	1503.84898	216.54315	383.74933	883.98430	255.80751	229.76534	902.61855	195.64526	131.95825	764.00296	167.07426	34.26151	727.90523	123.43872	381.57967	906.34158	142.06617	285.95418	1033.26197	133.21705	109.32732	999.72635	141.44522	9.27667	1039.55304	163.72837	449.52866	875.57276	159.06187	434.90112	756.55905	147.16519	479.29714	645.71022 
